<?xml version="1.0" encoding="UTF-8"?>
<svg xmlns="http://www.w3.org/2000/svg" width="187.652" height="74.985" viewBox="0 0 187.652 74.985">
  <g id="DIG_Logo" data-name="DIG Logo" transform="translate(-113.587 -49.757)">
    <g id="Group_141" data-name="Group 141">
      <path id="Path_98" data-name="Path 98" d="M147.563,114.044c-3.78-6.826-9.581-11.429-16.447-14.843l.015-.036a35.948,35.948,0,0,1-10.542-6.126,13.628,13.628,0,0,1-2.962-4.508,8.928,8.928,0,0,1-.837-2.207,22.43,22.43,0,0,1-1.029-10.015c.03-.351.231-.7-.052-1.034a36.182,36.182,0,0,0-.21,23.817,37.455,37.455,0,0,0,9.867,15.719,2.071,2.071,0,0,0,.232.312,36.022,36.022,0,0,0,18.921,9.5c3.037.508,5.061-1.155,5-4.226A13.689,13.689,0,0,0,147.563,114.044Z" fill="#fff"></path>
      <g id="Group_140" data-name="Group 140">
        <path id="Path_99" data-name="Path 99" d="M151.31,63.952c-.631-.419-1.289-.8-1.888-1.264a33.8,33.8,0,0,0-7.08-4.063,15.014,15.014,0,0,0-8.643-.747,22.831,22.831,0,0,0-9.4,3.925c-.22.154-.4.49-.758.277h0c-2.355,2.547-2.479,5.942.608,7.406a16.917,16.917,0,0,0,9.533,1.172,28.748,28.748,0,0,0,8.056-1.758,48.3,48.3,0,0,0,9.591-4.8C151.323,64.053,151.316,64,151.31,63.952Z" fill="#fff" opacity="0.54"></path>
        <path id="Path_100" data-name="Path 100" d="M123.163,62.536s.012-.01.013-.015Z" fill="#a75574"></path>
        <path id="Path_101" data-name="Path 101" d="M123.358,62.326l0,0Z" fill="#a75574"></path>
      </g>
      <path id="Path_102" data-name="Path 102" d="M130.7,89.163a29.215,29.215,0,0,0-2.743-8.792c-.351-.7-.68-1.413-1.055-2.1a14.591,14.591,0,0,0-5.35-5.763c-2.261-1.336-4.829-.116-5.838,2.766.283.332.082.683.052,1.034a22.43,22.43,0,0,0,1.029,10.015,8.928,8.928,0,0,0,.837,2.207,13.628,13.628,0,0,0,2.962,4.508,35.948,35.948,0,0,0,10.542,6.126A38.345,38.345,0,0,0,130.7,89.163Z" fill="#fff" opacity="0.54"></path>
      <path id="Path_103" data-name="Path 103" d="M180.214,88.2c.414.246.825.5,1.239.745a19.645,19.645,0,0,0,2.56,1.34,20.171,20.171,0,0,0,2.841-13.946.5.5,0,0,1,.162-.528,4.774,4.774,0,0,0-1.262-2.511,3.4,3.4,0,0,0-4.123-.952,7.718,7.718,0,0,0-2.619,1.742,23.24,23.24,0,0,0-5.83,10.279,37.894,37.894,0,0,0-1.625,14.8c1.463-.673,2.956-1.289,4.383-2.031,3.084-1.6,6.033-3.393,7.971-6.426l.1-.425a19.524,19.524,0,0,1-2.56-1.34C181.039,88.7,180.628,88.447,180.214,88.2Z" fill="#fff" opacity="0.54"></path>
      <path id="Path_104" data-name="Path 104" d="M188.635,92.934a39.375,39.375,0,0,0-.162-11.808,18.443,18.443,0,0,0-1.518-5.339.5.5,0,0,0-.163.528,20.94,20.94,0,0,1-2.929,14.213h0c-1.937,3.034-4.9,4.982-7.984,6.584-1.427.742-2.92,1.359-4.383,2.032l-.045.071c-1.375.768-2.786,1.478-4.118,2.315a34.764,34.764,0,0,0-10.659,9.962,17.784,17.784,0,0,0-3.531,8.249c-.449,3.381,2.006,5.691,5.073,4.815a12.871,12.871,0,0,0,2.8-.539c11.52-3.1,19.5-10.365,24.566-21a32.361,32.361,0,0,0,3.053-10.081" fill="#fff"></path>
      <path id="Path_105" data-name="Path 105" d="M179.607,62.557l-.184-.208.008.008c-.069-.085-.137-.171-.205-.257l-.13-.142a1.76,1.76,0,0,1-.45-.085,1.85,1.85,0,0,0,.45.085,33.1,33.1,0,0,0-12.366-9.031c-.3-.132-.6-.277-.9-.4a40.138,40.138,0,0,0-10.813-2.624c-.769-.059-.31-.015-.992-.059a37.163,37.163,0,0,0-26.954,8.582,14.478,14.478,0,0,0-3.529,3.65c.362.213.538-.123.758-.277a22.831,22.831,0,0,1,9.4-3.925,15.014,15.014,0,0,1,8.643.747,33.8,33.8,0,0,1,7.08,4.063c.6.461,1.257.845,1.888,1.264h0c.006.051.013.1.02.152a53.606,53.606,0,0,0,6.394,3.508,32.675,32.675,0,0,0,8.631,2.663,11.415,11.415,0,0,0,3.2.491,17.284,17.284,0,0,0,9.074-1.339C181.652,67.933,182.051,64.92,179.607,62.557Zm-1.079-.727-.02-.007Z" fill="#fff"></path>
    </g>
    <g id="Group_142" data-name="Group 142">
      <path id="Path_106" data-name="Path 106" d="M230.68,106.5H216.94V65.7h13.74a28.681,28.681,0,0,1,8.7,1.11,10.382,10.382,0,0,1,5.31,3.66,15.118,15.118,0,0,1,2.61,6,45.39,45.39,0,0,1,.72,8.97,52.54,52.54,0,0,1-.66,9.15,17.737,17.737,0,0,1-2.49,6.48,10.381,10.381,0,0,1-5.31,4.14A25.866,25.866,0,0,1,230.68,106.5Zm8.7-16.2q.118-1.918.12-5.31a48.872,48.872,0,0,0-.24-5.43,10.371,10.371,0,0,0-1.14-3.72,4.749,4.749,0,0,0-2.67-2.31,14.629,14.629,0,0,0-4.77-.63h-5.46V99.3h5.46q4.5,0,6.54-2.28Q238.96,95.161,239.38,90.3Z" fill="#fff"></path>
      <path id="Path_107" data-name="Path 107" d="M255.219,106.5V65.7H263.5v40.8Z" fill="#fff"></path>
      <path id="Path_108" data-name="Path 108" d="M289.359,91.86v-7.2h11.88v21.18a91.663,91.663,0,0,1-13.92,1.38q-9.54,0-13.11-5.1t-3.57-16.2q0-11.1,3.72-16.02t12.66-4.92a63.426,63.426,0,0,1,12.06,1.26l2.16.42L301,73.08a114.094,114.094,0,0,0-11.79-.78q-4.59,0-6.45,1.08a6.486,6.486,0,0,0-2.73,3.99q-.87,2.911-.87,9.96t1.74,9.87q1.74,2.822,7.2,2.82l4.98-.24V91.86Z" fill="#fff"></path>
    </g>
  </g>
</svg>
