<?xml version="1.0" encoding="UTF-8"?>
<svg xmlns="http://www.w3.org/2000/svg" width="75.413" height="74.985" viewBox="0 0 75.413 74.985">
  <g id="Footer_logo" data-name="Footer logo" transform="translate(-111.783 -2043.257)">
    <path id="Path_3" data-name="Path 3" d="M145.759,2107.544c-3.779-6.826-9.581-11.429-16.447-14.843l.015-.037a35.91,35.91,0,0,1-10.542-6.126,13.641,13.641,0,0,1-2.962-4.507,8.957,8.957,0,0,1-.837-2.208,22.438,22.438,0,0,1-1.029-10.014c.03-.352.231-.7-.052-1.034a36.189,36.189,0,0,0-.21,23.817,37.463,37.463,0,0,0,9.867,15.719,2.137,2.137,0,0,0,.233.312,36.015,36.015,0,0,0,18.921,9.5c3.036.509,5.06-1.154,4.995-4.225A13.686,13.686,0,0,0,145.759,2107.544Z" fill="#fff"></path>
    <g id="Group_1" data-name="Group 1">
      <path id="Path_4" data-name="Path 4" d="M149.506,2057.452c-.631-.419-1.289-.8-1.888-1.264a33.737,33.737,0,0,0-7.08-4.063,15.014,15.014,0,0,0-8.643-.747,22.818,22.818,0,0,0-9.4,3.925c-.22.153-.4.489-.758.276h0c-2.354,2.548-2.478,5.943.609,7.407a16.912,16.912,0,0,0,9.532,1.172,28.742,28.742,0,0,0,8.056-1.758,48.371,48.371,0,0,0,9.591-4.8C149.519,2057.553,149.512,2057.5,149.506,2057.452Z" fill="#fff" opacity="0.54"></path>
      <path id="Path_5" data-name="Path 5" d="M121.36,2056.035s.012-.009.012-.014Z" fill="#a75574"></path>
      <path id="Path_6" data-name="Path 6" d="M121.554,2055.826l0,0Z" fill="#a75574"></path>
    </g>
    <path id="Path_7" data-name="Path 7" d="M128.891,2082.663a29.185,29.185,0,0,0-2.743-8.792c-.35-.7-.679-1.413-1.055-2.1a14.588,14.588,0,0,0-5.35-5.762c-2.261-1.336-4.829-.116-5.838,2.766.283.332.082.682.052,1.034a22.438,22.438,0,0,0,1.029,10.014,8.957,8.957,0,0,0,.837,2.208,13.641,13.641,0,0,0,2.962,4.507,35.91,35.91,0,0,0,10.542,6.126A38.339,38.339,0,0,0,128.891,2082.663Z" fill="#fff" opacity="0.54"></path>
    <path id="Path_8" data-name="Path 8" d="M178.41,2081.7c.415.245.826.5,1.239.745a19.7,19.7,0,0,0,2.56,1.34,20.172,20.172,0,0,0,2.841-13.947.5.5,0,0,1,.162-.527,4.771,4.771,0,0,0-1.261-2.512,3.4,3.4,0,0,0-4.124-.951,7.715,7.715,0,0,0-2.619,1.742,23.244,23.244,0,0,0-5.83,10.279,37.891,37.891,0,0,0-1.625,14.8c1.463-.673,2.956-1.29,4.384-2.031,3.083-1.6,6.033-3.393,7.97-6.427l.1-.424a19.7,19.7,0,0,1-2.56-1.34C179.236,2082.2,178.825,2081.946,178.41,2081.7Z" fill="#fff" opacity="0.54"></path>
    <path id="Path_9" data-name="Path 9" d="M186.831,2086.434a39.376,39.376,0,0,0-.162-11.808,18.391,18.391,0,0,0-1.518-5.339.5.5,0,0,0-.162.528,20.951,20.951,0,0,1-2.929,14.213h0c-1.938,3.034-4.9,4.982-7.985,6.584-1.427.742-2.92,1.358-4.383,2.031l-.045.072c-1.375.768-2.786,1.478-4.117,2.315a34.778,34.778,0,0,0-10.66,9.962,17.78,17.78,0,0,0-3.531,8.249c-.449,3.381,2.006,5.691,5.074,4.814a12.873,12.873,0,0,0,2.8-.538c11.52-3.1,19.5-10.366,24.566-21a32.359,32.359,0,0,0,3.053-10.081" fill="#fff"></path>
    <path id="Path_10" data-name="Path 10" d="M177.8,2056.056l-.184-.207.008.008-.205-.257-.13-.143a1.817,1.817,0,0,1-.45-.084,1.809,1.809,0,0,0,.45.084,33.1,33.1,0,0,0-12.366-9.03c-.3-.133-.594-.278-.9-.4a40.1,40.1,0,0,0-10.813-2.624c-.768-.059-.31-.015-.992-.059a37.158,37.158,0,0,0-26.954,8.582,14.474,14.474,0,0,0-3.529,3.649c.362.213.538-.123.758-.276a22.818,22.818,0,0,1,9.4-3.925,15.014,15.014,0,0,1,8.643.747,33.737,33.737,0,0,1,7.08,4.063c.6.461,1.257.845,1.888,1.264h0c.006.051.013.1.02.152a53.54,53.54,0,0,0,6.4,3.508,32.706,32.706,0,0,0,8.631,2.663,11.407,11.407,0,0,0,3.2.491,17.293,17.293,0,0,0,9.073-1.339C179.849,2061.433,180.248,2058.419,177.8,2056.056Zm-1.079-.726-.02-.007Z" fill="#fff"></path>
  </g>
</svg>
