<svg xmlns="http://www.w3.org/2000/svg" width="256" height="256" viewBox="0 0 100 100"><rect width="100" height="100" rx="20" fill="#1e3358"></rect><path fill="#fff" d="M23.01 69.38L23.01 69.38L9.96 69.38L9.96 30.62L23.01 30.62Q28.03 30.62 31.28 31.67Q34.52 32.73 36.32 35.15Q38.12 37.57 38.80 40.85Q39.48 44.13 39.48 49.37Q39.48 54.62 38.86 58.07Q38.23 61.51 36.49 64.22Q34.75 66.93 31.45 68.15Q28.14 69.38 23.01 69.38ZM31.28 53.99L31.28 53.99Q31.39 52.17 31.39 48.95Q31.39 45.72 31.16 43.79Q30.93 41.85 30.08 40.25Q29.22 38.66 27.54 38.06Q25.86 37.46 23.01 37.46L23.01 37.46L17.82 37.46L17.82 62.54L23.01 62.54Q27.29 62.54 29.22 60.37L29.22 60.37Q30.88 58.61 31.28 53.99ZM54.19 69.38L46.32 69.38L46.32 30.62L54.19 30.62L54.19 69.38ZM82.29 55.47L78.76 55.47L78.76 48.63L90.04 48.63L90.04 68.75Q81.89 70.06 76.82 70.06L76.82 70.06Q67.76 70.06 64.36 65.22Q60.97 60.37 60.97 49.83Q60.97 39.28 64.51 34.61Q68.04 29.94 76.53 29.94L76.53 29.94Q81.83 29.94 87.99 31.13L87.99 31.13L90.04 31.53L89.81 37.63Q82.97 36.89 78.61 36.89Q74.25 36.89 72.49 37.92Q70.72 38.94 69.89 41.71Q69.07 44.47 69.07 51.17Q69.07 57.87 70.72 60.54Q72.37 63.22 77.56 63.22L77.56 63.22L82.29 63.00L82.29 55.47Z"></path></svg>